<svg xmlns="http://www.w3.org/2000/svg" width="35.627" height="34.755"><path data-name="Path 20" d="M33.237 8.872a17.736 17.736 0 00-6.483-6.483A17.423 17.423 0 0017.813 0a17.425 17.425 0 00-8.941 2.389 17.734 17.734 0 00-6.483 6.483A17.425 17.425 0 000 17.813a17.312 17.312 0 003.4 10.472 17.446 17.446 0 008.779 6.436 1.038 1.038 0 00.928-.162.907.907 0 00.3-.7l-.012-1.252q-.012-1.182-.012-2.064l-.534.092a6.805 6.805 0 01-1.287.081 9.809 9.809 0 01-1.612-.162 3.6 3.6 0 01-1.554-.7 2.943 2.943 0 01-1.021-1.419l-.232-.534a5.8 5.8 0 00-.73-1.183 2.8 2.8 0 00-1.013-.883l-.162-.116a1.7 1.7 0 01-.3-.279 1.272 1.272 0 01-.209-.325q-.07-.163.116-.267a1.5 1.5 0 01.673-.1l.464.069a3.386 3.386 0 011.148.557 3.744 3.744 0 011.125 1.206 4.089 4.089 0 001.289 1.455 2.731 2.731 0 001.519.5 6.6 6.6 0 001.322-.116 4.613 4.613 0 001.044-.348 3.758 3.758 0 011.136-2.389 15.881 15.881 0 01-2.377-.418 9.466 9.466 0 01-2.18-.9 6.244 6.244 0 01-1.867-1.554 7.468 7.468 0 01-1.218-2.435 11.581 11.581 0 01-.475-3.479 6.765 6.765 0 011.832-4.79 6.235 6.235 0 01.162-4.731 3.25 3.25 0 011.995.313 13.946 13.946 0 011.937.893q.615.371.986.626a16.751 16.751 0 018.907 0l.881-.556a12.483 12.483 0 012.134-1.016 3.04 3.04 0 011.879-.255 6.175 6.175 0 01.185 4.731 6.766 6.766 0 011.833 4.778 11.711 11.711 0 01-.479 3.486 7.178 7.178 0 01-1.229 2.435 6.484 6.484 0 01-1.871 1.543 9.484 9.484 0 01-2.18.9 15.865 15.865 0 01-2.377.418 4.131 4.131 0 011.206 3.293v4.894a.924.924 0 00.29.7 1.007 1.007 0 00.916.162 17.444 17.444 0 008.779-6.436 17.315 17.315 0 003.4-10.472 17.439 17.439 0 00-2.397-8.94z" fill="#fff"/></svg>