<svg xmlns="http://www.w3.org/2000/svg" width="31.925" height="31.931"><path data-name="Path 17" d="M31.844 9.388a11.668 11.668 0 00-.742-3.874A8.18 8.18 0 0026.429.842 11.7 11.7 0 0022.551.1c-1.7-.081-2.247-.1-6.583-.1S11.09.019 9.387.094a11.671 11.671 0 00-3.873.742 7.791 7.791 0 00-2.832 1.846 7.862 7.862 0 00-1.84 2.826 11.7 11.7 0 00-.743 3.874c-.081 1.709-.1 2.252-.1 6.587s.019 4.878.094 6.581a11.667 11.667 0 00.742 3.874A8.178 8.178 0 005.508 31.1a11.7 11.7 0 003.874.742c1.7.075 2.246.094 6.581.094s4.878-.019 6.581-.094a11.665 11.665 0 003.874-.742 8.167 8.167 0 004.672-4.672 11.707 11.707 0 00.742-3.874c.075-1.7.094-2.246.094-6.581s-.006-4.878-.081-6.581zm-2.876 13.037a8.752 8.752 0 01-.549 2.963 5.3 5.3 0 01-3.032 3.032 8.783 8.783 0 01-2.963.549c-1.684.075-2.189.094-6.45.094s-4.772-.019-6.45-.094a8.748 8.748 0 01-2.963-.549 4.913 4.913 0 01-1.834-1.192 4.964 4.964 0 01-1.192-1.834 8.785 8.785 0 01-.549-2.963c-.075-1.684-.094-2.19-.094-6.45s.019-4.772.094-6.45a8.748 8.748 0 01.549-2.963 4.853 4.853 0 011.2-1.834 4.957 4.957 0 011.833-1.191 8.789 8.789 0 012.963-.549c1.684-.075 2.19-.094 6.45-.094s4.772.019 6.45.094a8.752 8.752 0 012.963.549 4.91 4.91 0 011.834 1.191 4.963 4.963 0 011.192 1.834 8.788 8.788 0 01.549 2.963c.075 1.684.094 2.189.094 6.45s-.019 4.759-.094 6.444zm0 0" fill="#fff"/><path data-name="Path 18" d="M15.969 7.766a8.2 8.2 0 108.2 8.2 8.2 8.2 0 00-8.2-8.2zm0 13.524a5.321 5.321 0 115.321-5.321 5.322 5.322 0 01-5.321 5.321zm0 0" fill="#fff"/><path data-name="Path 19" d="M26.411 7.442a1.915 1.915 0 11-1.915-1.915 1.915 1.915 0 011.915 1.915zm0 0" fill="#fff"/></svg>