<svg xmlns="http://www.w3.org/2000/svg" width="31.297" height="31.297"><path d="M28.466 0H2.831A2.831 2.831 0 000 2.831v25.635A2.831 2.831 0 002.831 31.3h25.635a2.831 2.831 0 002.834-2.834V2.831A2.831 2.831 0 0028.466 0zM9.685 27.024a.824.824 0 01-.824.824H5.354a.824.824 0 01-.824-.824v-14.7a.824.824 0 01.824-.824h3.507a.824.824 0 01.824.824zM7.107 10.113a3.332 3.332 0 113.332-3.332 3.332 3.332 0 01-3.332 3.332zM28.012 27.09a.758.758 0 01-.758.758h-3.763a.758.758 0 01-.758-.758v-6.9c0-1.029.3-4.508-2.688-4.508-2.319 0-2.79 2.381-2.884 3.45v7.958a.758.758 0 01-.758.758h-3.64a.758.758 0 01-.758-.758V12.256a.758.758 0 01.758-.758H16.4a.758.758 0 01.758.758v1.283c.86-1.291 2.138-2.287 4.859-2.287 6.026 0 5.992 5.63 5.992 8.723v7.115z" fill="#fff"/></svg>